HIERARCHY
ROOT Hips
{
	OFFSET 0.000000 103.266502 0.000000
	CHANNELS 6 Xposition Yposition Zposition Xrotation Yrotation Zrotation 
	JOINT Spine
	{
		OFFSET -0.002400 12.777504 0.315300
		CHANNELS 3 Xrotation Yrotation Zrotation
		JOINT Spine1
		{
			OFFSET -0.002067 5.816869 0.032633
			CHANNELS 3 Xrotation Yrotation Zrotation
			JOINT Spine1_split
			{
				OFFSET -0.002067 5.816869 0.032633
				CHANNELS 3 Xrotation Yrotation Zrotation
				JOINT Spine2
				{
					OFFSET -0.002067 5.816869 0.032633
					CHANNELS 3 Xrotation Yrotation Zrotation
					JOINT Neck
					{
						OFFSET -0.003700 21.199493 -0.826900
						CHANNELS 3 Xrotation Yrotation Zrotation
						JOINT Head
						{
							OFFSET 0.000000 20.442200 4.834800
							CHANNELS 3 Xrotation Yrotation Zrotation
							JOINT HeadTop_End
							{
								OFFSET 0.000000 34.668396 4.968400
								CHANNELS 3 Xrotation Yrotation Zrotation
								End Site
								{
									OFFSET 0.000000 0.000000 0.000000
								}
							}
						}
					}
					JOINT LeftShoulder
					{
						OFFSET 3.288150 8.794197 -1.372250
						CHANNELS 3 Xrotation Yrotation Zrotation
						JOINT LeftShoulder_split
						{
							OFFSET 3.288150 8.794197 -1.372250
							CHANNELS 3 Xrotation Yrotation Zrotation
							JOINT LeftArm
							{
								OFFSET 11.953299 -2.279007 -0.146200
								CHANNELS 3 Xrotation Yrotation Zrotation
								JOINT LeftForeArm
								{
									OFFSET 18.448900 0.000000 0.000000
									CHANNELS 3 Xrotation Yrotation Zrotation
									JOINT LeftHand
									{
										OFFSET 29.527798 0.000000 0.000000
										CHANNELS 3 Xrotation Yrotation Zrotation
										JOINT LeftHandThumb1
										{
											OFFSET 10.739754 -2.369614 9.225399
											CHANNELS 3 Xrotation Yrotation Zrotation
											JOINT LeftHandThumb2
											{
												OFFSET 4.926170 -2.844131 2.844125
												CHANNELS 3 Xrotation Yrotation Zrotation
												JOINT LeftHandThumb3
												{
													OFFSET 4.614891 -2.664413 2.664409
													CHANNELS 3 Xrotation Yrotation Zrotation
													JOINT LeftHandThumb4
													{
														OFFSET 4.432465 -2.559082 2.559083
														CHANNELS 3 Xrotation Yrotation Zrotation
														End Site
														{
															OFFSET 0.000000 0.000000 0.000000
														}
													}
												}
											}
										}
										JOINT LeftHandIndex1
										{
											OFFSET 26.467674 0.187653 6.405298
											CHANNELS 3 Xrotation Yrotation Zrotation
											JOINT LeftHandIndex2
											{
												OFFSET 8.792900 0.000000 0.000000
												CHANNELS 3 Xrotation Yrotation Zrotation
												JOINT LeftHandIndex3
												{
													OFFSET 10.075203 0.000000 0.000000
													CHANNELS 3 Xrotation Yrotation Zrotation
													End Site
													{
														OFFSET 0.000000 0.000000 0.000000
													}
												}
											}
										}
										JOINT LeftHandMiddle1
										{
											OFFSET 25.764404 0.000000 0.000000
											CHANNELS 3 Xrotation Yrotation Zrotation
											JOINT LeftHandMiddle2
											{
												OFFSET 9.393974 0.000000 0.000000
												CHANNELS 3 Xrotation Yrotation Zrotation
												JOINT LeftHandMiddle3
												{
													OFFSET 10.771950 0.000000 0.000000
													CHANNELS 3 Xrotation Yrotation Zrotation
													End Site
													{
														OFFSET 0.000000 0.000000 0.000000
													}
												}
											}
										}
										JOINT LeftHandRing1
										{
											OFFSET 24.660927 0.144547 -6.225808
											CHANNELS 3 Xrotation Yrotation Zrotation
											JOINT LeftHandRing2
											{
												OFFSET 9.393799 0.000000 0.000000
												CHANNELS 3 Xrotation Yrotation Zrotation
												JOINT LeftHandRing3
												{
													OFFSET 9.928497 0.000000 0.000000
													CHANNELS 3 Xrotation Yrotation Zrotation
													End Site
													{
														OFFSET 0.000000 0.000000 0.000000
													}
												}
											}
										}
										JOINT LeftHandPinky1
										{
											OFFSET 23.655350 0.125290 -12.815412
											CHANNELS 3 Xrotation Yrotation Zrotation
											JOINT LeftHandPinky2
											{
												OFFSET 8.425102 0.000000 0.000000
												CHANNELS 3 Xrotation Yrotation Zrotation
												JOINT LeftHandPinky3
												{
													OFFSET 8.147003 0.000000 0.000000
													CHANNELS 3 Xrotation Yrotation Zrotation
													End Site
													{
														OFFSET 0.000000 0.000000 0.000000
													}
												}
											}
										}
									}
								}
							}
						}
					}
					JOINT RightShoulder
					{
						OFFSET -3.249400 8.794197 -1.372250
						CHANNELS 3 Xrotation Yrotation Zrotation
						JOINT RightShoulder_split
						{
							OFFSET -3.249400 8.794197 -1.372250
							CHANNELS 3 Xrotation Yrotation Zrotation
							JOINT RightArm
							{
								OFFSET -11.953299 -2.279007 -0.146200
								CHANNELS 3 Xrotation Yrotation Zrotation
								JOINT RightForeArm
								{
									OFFSET -18.448900 0.000000 0.000000
									CHANNELS 3 Xrotation Yrotation Zrotation
									JOINT RightHand
									{
										OFFSET -29.527802 0.000000 0.000000
										CHANNELS 3 Xrotation Yrotation Zrotation
										JOINT RightHandThumb1
										{
											OFFSET -10.739754 -2.369614 9.225399
											CHANNELS 3 Xrotation Yrotation Zrotation
											JOINT RightHandThumb2
											{
												OFFSET -4.926170 -2.844131 2.844125
												CHANNELS 3 Xrotation Yrotation Zrotation
												JOINT RightHandThumb3
												{
													OFFSET -4.614891 -2.664413 2.664409
													CHANNELS 3 Xrotation Yrotation Zrotation
													JOINT RightHandThumb4
													{
														OFFSET -4.432465 -2.559082 2.559083
														CHANNELS 3 Xrotation Yrotation Zrotation
														End Site
														{
															OFFSET 0.000000 0.000000 0.000000
														}
													}
												}
											}
										}
										JOINT RightHandIndex1
										{
											OFFSET -26.467674 0.187653 6.405298
											CHANNELS 3 Xrotation Yrotation Zrotation
											JOINT RightHandIndex2
											{
												OFFSET -8.792900 0.000000 0.000000
												CHANNELS 3 Xrotation Yrotation Zrotation
												JOINT RightHandIndex3
												{
													OFFSET -10.075203 0.000000 0.000000
													CHANNELS 3 Xrotation Yrotation Zrotation
													End Site
													{
														OFFSET 0.000000 0.000000 0.000000
													}
												}
											}
										}
										JOINT RightHandMiddle1
										{
											OFFSET -25.764404 0.000000 0.000000
											CHANNELS 3 Xrotation Yrotation Zrotation
											JOINT RightHandMiddle2
											{
												OFFSET -9.393974 0.000000 0.000000
												CHANNELS 3 Xrotation Yrotation Zrotation
												JOINT RightHandMiddle3
												{
													OFFSET -10.771950 0.000000 0.000000
													CHANNELS 3 Xrotation Yrotation Zrotation
													End Site
													{
														OFFSET 0.000000 0.000000 0.000000
													}
												}
											}
										}
										JOINT RightHandRing1
										{
											OFFSET -24.660927 0.144547 -6.225808
											CHANNELS 3 Xrotation Yrotation Zrotation
											JOINT RightHandRing2
											{
												OFFSET -9.393799 0.000000 0.000000
												CHANNELS 3 Xrotation Yrotation Zrotation
												JOINT RightHandRing3
												{
													OFFSET -9.928497 0.000000 0.000000
													CHANNELS 3 Xrotation Yrotation Zrotation
													End Site
													{
														OFFSET 0.000000 0.000000 0.000000
													}
												}
											}
										}
										JOINT RightHandPinky1
										{
											OFFSET -23.655350 0.125290 -12.815412
											CHANNELS 3 Xrotation Yrotation Zrotation
											JOINT RightHandPinky2
											{
												OFFSET -8.425102 0.000000 0.000000
												CHANNELS 3 Xrotation Yrotation Zrotation
												JOINT RightHandPinky3
												{
													OFFSET -8.147003 0.000000 0.000000
													CHANNELS 3 Xrotation Yrotation Zrotation
													End Site
													{
														OFFSET 0.000000 0.000000 0.000000
													}
												}
											}
										}
									}
								}
							}
						}
					}
				}
			}
		}
	}
	JOINT LeftUpLeg
	{
		OFFSET 11.394100 -6.187798 -0.413800
		CHANNELS 3 Xrotation Yrotation Zrotation
		JOINT LeftLeg
		{
			OFFSET 0.430247 -32.302673 3.732800
			CHANNELS 3 Xrotation Yrotation Zrotation
			JOINT LeftFoot
			{
				OFFSET -0.430247 -48.264931 -6.423300
				CHANNELS 3 Xrotation Yrotation Zrotation
				JOINT LeftToeBase
				{
					OFFSET 4.230900 -16.068199 23.438400
					CHANNELS 3 Xrotation Yrotation Zrotation
					JOINT LeftToe_End
					{
						OFFSET 4.510700 0.695400 19.974600
						CHANNELS 3 Xrotation Yrotation Zrotation
						End Site
						{
							OFFSET 0.000000 0.000000 0.000000
						}
					}
				}
			}
		}
	}
	JOINT RightUpLeg
	{
		OFFSET -11.333700 -6.187798 -0.413800
		CHANNELS 3 Xrotation Yrotation Zrotation
		JOINT RightLeg
		{
			OFFSET -0.430392 -32.302628 3.733000
			CHANNELS 3 Xrotation Yrotation Zrotation
			JOINT RightFoot
			{
				OFFSET 0.430392 -48.264973 -6.423500
				CHANNELS 3 Xrotation Yrotation Zrotation
				JOINT RightToeBase
				{
					OFFSET -4.230900 -16.068199 23.438400
					CHANNELS 3 Xrotation Yrotation Zrotation
					JOINT RightToe_End
					{
						OFFSET -4.510700 0.695400 19.974600
						CHANNELS 3 Xrotation Yrotation Zrotation
						End Site
						{
							OFFSET 0.000000 0.000000 0.000000
						}
					}
				}
			}
		}
	}
}
MOTION
Frames: 6
Frame Time: 0.016667
-0.417842 85.632568 0.299603 11.705716 -49.521699 11.404204 10.978903 2.848590 -2.161168 6.100713 5.566512 -4.284673 0.000000 0.000000 0.000000 -5.786927 6.328162 -3.046191 2.318706 9.363315 -0.265341 -4.146677 23.161948 -3.523373 -0.000001 0.000000 -0.000000 -1.875340 -16.181702 -2.870485 0.000000 0.000000 0.000000 -10.644671 2.164714 -45.510585 -22.862378 -25.786266 -15.871714 2.491042 -2.511845 6.860503 18.457973 -9.513798 13.216577 -1.150184 11.255344 -8.400806 5.706545 8.483092 -0.820715 0.000001 0.000001 -0.000001 -1.232799 -5.771918 -0.192330 0.133953 -0.197653 -4.602111 0.000000 0.000000 0.000000 1.884753 4.663357 -4.597413 0.476682 -1.009820 -12.986428 0.000004 0.000000 -0.000001 3.024634 7.938943 -14.103466 -0.708009 -0.566239 -18.895763 -0.000001 0.000000 0.000001 2.010391 6.305955 -22.386560 -0.815355 -0.210781 -16.746483 0.000001 -0.000001 0.000001 -5.074595 24.343687 1.482626 0.000000 0.000000 0.000000 6.642390 -34.733704 57.610494 -21.031964 44.833847 19.961634 -0.087298 35.608491 7.474326 55.149539 18.649555 -29.698267 -0.442526 -14.180579 7.313152 21.666967 -29.244479 9.142357 -0.000001 -0.000001 -0.000002 5.673395 7.585020 36.844165 1.050468 3.824509 68.900257 0.000001 -0.000001 0.000001 -0.125716 1.886092 45.000766 -1.168986 3.204667 68.417670 0.000002 0.000001 -0.000000 -5.311985 1.216647 58.508801 -0.745229 1.667584 48.011302 0.000002 -0.000000 0.000000 -7.756806 -9.376474 47.264007 -0.526024 1.541613 45.600525 0.000003 0.000000 0.000001 -68.323065 24.999210 43.261687 44.537437 -19.585076 3.202421 7.537761 0.565777 -11.518782 -0.806936 -6.108590 0.920712 -0.000000 0.000000 -0.000000 -38.056455 1.958744 -24.202652 52.398493 1.036717 -6.829662 -21.041835 -1.757700 25.309575 0.528356 2.970032 1.471335 0.000000 -0.000002 0.000000 
-0.420492 85.491524 0.587045 17.367453 -51.240154 16.136027 6.605702 3.226256 -1.525115 4.905271 6.087639 -4.052454 0.000000 0.000000 0.000000 -6.993461 6.770108 -2.740919 -0.991442 3.774196 0.062745 -2.765972 16.503470 -2.144350 0.000000 0.000000 0.000000 -2.019448 -12.678697 -1.080113 0.000000 0.000000 0.000000 -6.222595 2.408195 -48.336077 -21.610066 -26.352752 -14.989777 2.965854 -1.783769 8.412969 18.064711 -9.416787 14.872083 -0.773618 11.739616 -8.473104 5.789430 8.646688 -0.813676 -0.000001 0.000001 0.000000 -1.184299 -5.275858 -1.333415 0.131706 -0.224513 -5.199136 0.000001 0.000002 -0.000000 1.542731 3.201552 -5.955571 0.477911 -1.005694 -12.916750 0.000001 0.000000 0.000001 2.085934 6.252227 -15.478192 -0.700613 -0.534757 -18.124370 -0.000000 0.000001 0.000000 1.342400 5.609884 -22.650034 -0.814027 -0.196012 -16.362355 0.000003 -0.000000 -0.000001 -5.292524 23.824651 2.533291 0.000000 0.000000 0.000000 6.218737 -35.596132 55.188123 -22.397616 43.628223 20.943860 3.828311 34.139229 9.201645 55.149536 18.649557 -29.698267 -0.442522 -14.180583 7.313151 21.666965 -29.244483 9.142356 0.000000 -0.000001 0.000000 5.673402 7.585015 36.844165 1.050467 3.824517 68.900250 -0.000002 -0.000002 0.000001 -0.125711 1.886089 45.000766 -1.168987 3.204664 68.417670 -0.000000 0.000000 0.000000 -5.311979 1.216649 58.508801 -0.745228 1.667585 48.011302 0.000000 -0.000001 0.000001 -7.756803 -9.376477 47.264004 -0.526026 1.541606 45.600522 0.000001 0.000001 0.000003 -70.068868 24.045099 43.118383 45.230028 -18.391700 3.376990 6.638884 2.618854 -12.680996 -0.806936 -6.108592 0.920712 0.000000 -0.000001 -0.000000 -42.135546 3.691684 -23.466003 52.419858 1.313715 -6.831021 -20.486816 -0.956883 25.404621 0.528356 2.970030 1.471336 0.000000 0.000002 0.000000 
-0.677303 85.271034 1.182237 23.078825 -51.206109 21.354641 1.931544 3.217448 -0.718330 3.783560 5.915582 -3.917735 0.000000 0.000000 0.000000 -8.078008 6.563235 -2.613888 -5.256408 -4.314893 1.768454 -0.964760 7.189385 -0.581165 0.000000 0.000002 -0.000000 -2.338701 -9.267085 0.477312 0.000000 0.000000 0.000000 0.012348 1.464316 -49.562230 -21.267385 -30.655719 -14.789842 4.369179 -3.947305 9.995074 17.604362 -9.261253 16.773923 -0.387779 12.245203 -8.536498 5.865866 8.783611 -0.821001 -0.000000 0.000001 -0.000003 -1.103381 -4.719072 -2.651491 0.129747 -0.245657 -5.669167 -0.000003 0.000001 -0.000003 1.185367 1.599519 -7.313234 0.484449 -0.983397 -12.540479 0.000001 0.000002 -0.000002 1.012839 4.393973 -16.937182 -0.690360 -0.487696 -16.975144 0.000000 -0.000000 -0.000000 0.513815 4.787115 -22.957010 -0.812383 -0.176142 -15.846283 0.000003 0.000002 0.000000 -5.306079 22.788508 3.827938 0.000000 0.000000 0.000000 7.662532 -36.585686 53.035517 -27.334620 45.566497 26.031903 8.948045 30.429306 10.709138 55.149536 18.649557 -29.698267 -0.442523 -14.180578 7.313150 21.666963 -29.244479 9.142357 0.000001 -0.000000 -0.000000 5.673400 7.585018 36.844158 1.050468 3.824514 68.900250 0.000002 -0.000002 -0.000001 -0.125711 1.886091 45.000773 -1.168987 3.204671 68.417663 -0.000002 0.000000 0.000001 -5.311979 1.216649 58.508801 -0.745228 1.667585 48.011302 0.000000 0.000000 0.000001 -7.756797 -9.376479 47.264004 -0.526024 1.541611 45.600522 -0.000004 -0.000002 0.000000 -72.119564 23.623473 42.158783 45.966128 -17.657122 3.484338 5.731488 4.215740 -13.400691 -0.806936 -6.108591 0.920712 0.000000 -0.000000 -0.000000 -45.445903 5.522066 -23.364607 52.459896 1.050739 -6.881200 -20.432793 -1.084400 25.904536 0.528356 2.970034 1.471336 0.000000 0.000003 -0.000000 
-1.180355 85.069496 1.905033 27.409687 -49.784460 25.655384 -1.828200 2.776206 -0.035516 3.102659 5.088911 -3.978478 0.000000 0.000000 0.000000 -8.666748 5.787707 -2.761521 -8.158454 -13.179543 6.213843 0.797488 -2.094667 0.411621 0.000000 0.000001 -0.000000 -2.777915 -7.561340 3.202648 0.000000 0.000000 0.000000 6.336158 0.679720 -51.194283 -20.920395 -35.100892 -14.588101 5.409412 -8.008541 10.884763 17.109803 -9.079824 18.724409 0.002460 12.754358 -8.604141 5.938794 8.914606 -0.827747 0.000001 -0.000002 -0.000000 -0.983827 -4.156252 -4.002707 0.127628 -0.266927 -6.142142 -0.000004 0.000001 0.000001 0.803376 -0.034199 -8.704972 0.492093 -0.956456 -12.087583 0.000002 0.000002 -0.000002 -0.132075 2.515799 -18.482075 -0.680295 -0.436510 -15.731500 0.000000 0.000000 0.000001 -0.362792 3.941762 -23.293216 -0.810855 -0.154965 -15.297260 -0.000002 -0.000003 0.000002 -5.506174 20.977702 6.822259 0.000000 0.000000 0.000000 8.426896 -38.300812 48.596396 -35.680078 50.798941 35.841196 12.703967 25.022420 12.320518 55.149543 18.649558 -29.698267 -0.442523 -14.180583 7.313149 21.666970 -29.244476 9.142355 0.000000 0.000001 -0.000001 5.673401 7.585018 36.844158 1.050466 3.824512 68.900250 0.000001 -0.000001 -0.000001 -0.125713 1.886093 45.000773 -1.168987 3.204667 68.417663 -0.000001 -0.000002 -0.000000 -5.311982 1.216651 58.508801 -0.745229 1.667586 48.011302 0.000000 0.000000 -0.000000 -7.756808 -9.376470 47.264004 -0.526023 1.541614 45.600522 -0.000001 -0.000000 -0.000003 -73.899382 23.854402 40.662083 46.351593 -17.436954 3.501354 4.985559 5.191366 -13.721609 -0.806936 -6.108589 0.920712 -0.000000 0.000000 0.000000 -47.521786 7.166710 -23.913232 52.525879 0.434494 -6.933407 -20.835373 -1.930875 26.556740 0.528356 2.970027 1.471335 -0.000000 0.000000 -0.000000 
-1.849606 84.953369 2.696395 30.345427 -47.742916 28.699417 -3.505137 1.857501 0.561389 3.307904 3.506680 -3.997016 0.000000 0.000000 0.000000 -8.328921 4.248525 -2.971353 -11.046993 -19.653104 9.678653 2.777023 -9.457405 3.013809 0.000000 0.000001 -0.000000 -3.066419 -7.807667 4.730873 0.000000 0.000000 0.000000 10.311689 1.423234 -52.599458 -19.446783 -36.074177 -13.613603 5.926625 -9.868624 10.177426 16.622049 -8.910701 20.531549 0.386558 13.253239 -8.674185 6.018180 9.057461 -0.834913 0.000000 -0.000002 -0.000001 -0.832548 -3.639091 -5.242936 0.124579 -0.294096 -6.747931 -0.000001 0.000003 -0.000004 0.384849 -1.589227 -10.165048 0.497068 -0.938591 -11.787947 -0.000001 -0.000000 -0.000000 -1.280122 0.766621 -20.099672 -0.672662 -0.393024 -14.676794 0.000000 -0.000003 -0.000000 -1.171363 3.173660 -23.633542 -0.809631 -0.136394 -14.814183 -0.000000 -0.000002 0.000001 -5.187631 18.961578 9.196352 0.000000 0.000000 0.000000 7.063282 -38.893549 43.103927 -47.779362 56.035828 50.040541 13.976217 20.174989 13.298300 55.149539 18.649555 -29.698267 -0.442528 -14.180583 7.313148 21.666967 -29.244476 9.142358 0.000000 0.000001 -0.000000 5.673398 7.585020 36.844158 1.050468 3.824510 68.900257 0.000001 -0.000002 -0.000001 -0.125714 1.886092 45.000770 -1.168987 3.204669 68.417663 0.000000 0.000000 0.000001 -5.311982 1.216650 58.508794 -0.745229 1.667590 48.011302 0.000003 -0.000000 -0.000001 -7.756803 -9.376474 47.264001 -0.526024 1.541614 45.600525 -0.000002 -0.000000 -0.000001 -75.233564 24.399889 39.026506 46.393329 -17.553064 3.457924 4.357915 5.729824 -13.828462 -0.806936 -6.108592 0.920712 0.000000 0.000001 0.000000 -48.496966 8.354674 -24.784040 52.400829 -0.264739 -6.938164 -21.452562 -3.120882 27.157138 0.528356 2.970032 1.471336 0.000000 -0.000003 0.000000 
-2.602707 84.941994 3.460393 32.644005 -45.605866 31.230958 -2.524634 0.539551 1.068734 4.410006 1.210503 -3.819900 0.000000 0.000000 0.000000 -7.099657 1.952063 -3.048251 -14.462336 -22.730759 10.849854 4.609034 -13.782390 7.186136 -0.000000 0.000000 0.000001 -2.432252 -9.071566 3.582093 0.000000 0.000000 0.000000 8.625661 7.233650 -52.983533 -16.855507 -33.585116 -12.183763 5.124953 -7.681678 10.495960 16.190755 -8.796711 22.009030 0.753833 13.727952 -8.744355 6.114071 9.229454 -0.844175 -0.000001 -0.000001 -0.000002 -0.668516 -3.215017 -6.227405 0.119783 -0.333058 -7.616359 0.000001 -0.000001 0.000003 -0.083811 -2.953123 -11.726866 0.495679 -0.943569 -11.871569 0.000002 0.000000 0.000001 -2.354714 -0.708431 -21.761302 -0.668807 -0.368919 -14.094341 0.000002 -0.000002 0.000001 -1.792031 2.577817 -23.942711 -0.808905 -0.124125 -14.495987 -0.000001 0.000001 -0.000001 -4.436295 16.815601 10.916743 0.000000 0.000000 0.000000 2.867431 -37.919359 36.724735 -62.960370 60.678315 67.613395 11.676012 17.411341 13.576431 55.149536 18.649555 -29.698264 -0.442526 -14.180579 7.313152 21.666967 -29.244476 9.142355 0.000001 -0.000000 -0.000001 5.673400 7.585018 36.844165 1.050468 3.824516 68.900257 0.000000 -0.000001 0.000001 -0.125712 1.886090 45.000766 -1.168987 3.204668 68.417663 -0.000002 0.000000 -0.000000 -5.311978 1.216645 58.508794 -0.745228 1.667585 48.011302 0.000001 0.000000 0.000002 -7.756802 -9.376479 47.264001 -0.526024 1.541615 45.600525 0.000002 -0.000001 -0.000004 -76.046438 25.167715 37.273589 45.983788 -17.718511 3.377291 3.854211 6.175890 -13.973463 -0.806936 -6.108592 0.920712 -0.000000 0.000000 -0.000000 -49.034413 9.299448 -25.798726 52.089977 -0.857270 -6.900336 -22.069074 -4.347228 27.597832 0.528356 2.970033 1.471336 -0.000000 -0.000002 -0.000000 
